<svg id="Calque_1" data-name="Calque 1" xmlns="http://www.w3.org/2000/svg" xmlns:xlink="http://www.w3.org/1999/xlink" viewBox="0 0 821.64 809.44"><defs><style>.cls-1,.cls-2,.cls-3{fill:#fff;}.cls-2{clip-rule:evenodd;}.cls-3{fill-rule:evenodd;}.cls-4{clip-path:url(#clip-path);}.cls-5{clip-path:url(#clip-path-2);}.cls-6{opacity:0.18;}</style><clipPath id="clip-path" transform="translate(-277.35 -410.03)"><path class="cls-1" d="M818.83,689.31s4.92,41.51,10.28,45.14,14.31,20.28,6.71,28.75S838.5,790.14,843,792s19.67,7,18.78,16,2.68,18.16,7.6,20.89,11.18,5.14,11.18,13,6.7,7.57,6.7,7.57V689.31"/></clipPath><clipPath id="clip-path-2" transform="translate(-277.35 -410.03)"><path class="cls-2" d="M897.4,686.25a3.58,3.58,0,0,1-3.58,3.58H812.24a3.58,3.58,0,0,1-3.58-3.58h0a3.57,3.57,0,0,1,3.58-3.57h81.58a3.58,3.58,0,0,1,3.58,3.57Z"/></clipPath></defs><title>logo exp</title><path class="cls-3" d="M701,682.29c16.64-51.6,13.65-86.09,1.4-109.09a78.85,78.85,0,0,0-19.16,1.33c11.22,24.6,10.47,62.19-9.12,119.62-38.55,113,9.9,157.86,48.26,175.4h14.37C706.66,850.39,662.81,800.84,701,682.29Z" transform="translate(-277.35 -410.03)"/><path class="cls-1" d="M818.83,689.31s4.92,41.51,10.28,45.14,14.31,20.28,6.71,28.75S838.5,790.14,843,792s19.67,7,18.78,16,2.68,18.16,7.6,20.89,11.18,5.14,11.18,13,6.7,7.57,6.7,7.57V689.31" transform="translate(-277.35 -410.03)"/><g class="cls-4"><path class="cls-1" d="M818.83,689.31v0Z" transform="translate(-277.35 -410.03)"/><rect class="cls-1" x="541.48" y="279.28" width="0.38" height="160.46"/><rect class="cls-1" x="541.86" y="279.28" width="0.38" height="160.46"/><rect class="cls-1" x="542.24" y="279.28" width="0.38" height="160.46"/><rect class="cls-1" x="542.62" y="279.28" width="0.38" height="160.46"/><rect class="cls-1" x="543" y="279.28" width="0.38" height="160.46"/><rect class="cls-1" x="543.38" y="279.28" width="0.38" height="160.46"/><rect class="cls-1" x="543.76" y="279.28" width="0.38" height="160.46"/><rect class="cls-1" x="544.14" y="279.28" width="0.38" height="160.46"/><rect class="cls-1" x="544.52" y="279.28" width="0.38" height="160.46"/><rect class="cls-1" x="544.9" y="279.28" width="0.38" height="160.46"/><rect class="cls-1" x="545.28" y="279.28" width="0.38" height="160.46"/><rect class="cls-1" x="545.66" y="279.28" width="0.38" height="160.46"/><rect class="cls-1" x="546.04" y="279.28" width="0.38" height="160.46"/><rect class="cls-1" x="546.42" y="279.28" width="0.38" height="160.46"/><rect class="cls-1" x="546.8" y="279.28" width="0.38" height="160.46"/><rect class="cls-1" x="547.18" y="279.28" width="0.38" height="160.46"/><rect class="cls-1" x="547.56" y="279.28" width="0.38" height="160.46"/><rect class="cls-1" x="547.94" y="279.28" width="0.38" height="160.46"/><rect class="cls-1" x="548.32" y="279.28" width="0.38" height="160.46"/><rect class="cls-1" x="548.7" y="279.28" width="0.38" height="160.46"/><rect class="cls-1" x="549.08" y="279.28" width="0.38" height="160.46"/><rect class="cls-1" x="549.46" y="279.28" width="0.38" height="160.46"/><rect class="cls-1" x="549.84" y="279.28" width="0.38" height="160.46"/><rect class="cls-1" x="550.22" y="279.28" width="0.38" height="160.46"/><rect class="cls-1" x="550.6" y="279.28" width="0.38" height="160.46"/><rect class="cls-1" x="550.98" y="279.28" width="0.38" height="160.46"/><rect class="cls-1" x="551.36" y="279.28" width="0.38" height="160.46"/><rect class="cls-1" x="551.74" y="279.28" width="0.38" height="160.46"/><rect class="cls-1" x="552.12" y="279.28" width="0.38" height="160.46"/><rect class="cls-1" x="552.5" y="279.28" width="0.38" height="160.46"/><rect class="cls-1" x="552.88" y="279.28" width="0.38" height="160.46"/><rect class="cls-1" x="553.26" y="279.28" width="0.38" height="160.46"/><rect class="cls-1" x="553.64" y="279.28" width="0.38" height="160.46"/><rect class="cls-1" x="554.02" y="279.28" width="0.38" height="160.46"/><rect class="cls-1" x="554.4" y="279.28" width="0.38" height="160.46"/><rect class="cls-1" x="554.78" y="279.28" width="0.38" height="160.46"/><rect class="cls-1" x="555.16" y="279.28" width="0.29" height="160.46"/><rect class="cls-1" x="555.44" y="279.28" width="0.29" height="160.46"/><rect class="cls-1" x="555.73" y="279.28" width="0.29" height="160.46"/><rect class="cls-1" x="556.01" y="279.28" width="0.28" height="160.46"/><rect class="cls-1" x="556.3" y="279.28" width="0.29" height="160.46"/><rect class="cls-1" x="556.58" y="279.28" width="0.29" height="160.46"/><rect class="cls-1" x="556.87" y="279.28" width="0.29" height="160.46"/><rect class="cls-1" x="557.15" y="279.28" width="0.29" height="160.46"/><rect class="cls-1" x="557.44" y="279.28" width="0.29" height="160.46"/><rect class="cls-1" x="557.72" y="279.28" width="0.28" height="160.46"/><rect class="cls-1" x="558.01" y="279.28" width="0.29" height="160.46"/><rect class="cls-1" x="558.29" y="279.28" width="0.29" height="160.46"/><rect class="cls-1" x="558.58" y="279.28" width="0.29" height="160.46"/><rect class="cls-1" x="558.86" y="279.28" width="0.29" height="160.46"/><rect class="cls-1" x="559.15" y="279.28" width="0.29" height="160.46"/><rect class="cls-1" x="559.43" y="279.28" width="0.28" height="160.46"/><rect class="cls-1" x="559.72" y="279.28" width="0.29" height="160.46"/><rect class="cls-1" x="560" y="279.28" width="0.29" height="160.46"/><rect class="cls-1" x="560.29" y="279.28" width="0.29" height="160.46"/><rect class="cls-1" x="560.57" y="279.28" width="0.29" height="160.46"/><rect class="cls-1" x="560.86" y="279.28" width="0.29" height="160.46"/><rect class="cls-1" x="561.14" y="279.28" width="0.28" height="160.46"/><rect class="cls-1" x="561.43" y="279.28" width="0.29" height="160.46"/><rect class="cls-1" x="561.71" y="279.28" width="0.29" height="160.46"/><rect class="cls-1" x="562" y="279.28" width="0.29" height="160.46"/><rect class="cls-1" x="562.28" y="279.28" width="0.29" height="160.46"/><rect class="cls-1" x="562.57" y="279.28" width="0.29" height="160.46"/><rect class="cls-1" x="562.85" y="279.28" width="0.28" height="160.46"/><rect class="cls-1" x="563.14" y="279.28" width="0.29" height="160.46"/><rect class="cls-1" x="563.42" y="279.28" width="0.29" height="160.46"/><rect class="cls-1" x="563.71" y="279.28" width="0.29" height="160.46"/><rect class="cls-1" x="563.99" y="279.28" width="0.29" height="160.46"/><rect class="cls-1" x="564.28" y="279.28" width="0.29" height="160.46"/><rect class="cls-1" x="564.56" y="279.28" width="0.28" height="160.46"/><rect class="cls-1" x="564.85" y="279.28" width="0.29" height="160.46"/><rect class="cls-1" x="565.13" y="279.28" width="0.29" height="160.46"/><rect class="cls-1" x="565.42" y="279.28" width="0.47" height="160.46"/><rect class="cls-1" x="565.89" y="279.28" width="0.48" height="160.46"/><rect class="cls-1" x="566.37" y="279.28" width="0.47" height="160.46"/><rect class="cls-1" x="566.84" y="279.28" width="0.48" height="160.46"/><rect class="cls-1" x="567.32" y="279.28" width="0.47" height="160.46"/><rect class="cls-1" x="567.79" y="279.28" width="0.47" height="160.46"/><rect class="cls-1" x="568.27" y="279.28" width="0.48" height="160.46"/><rect class="cls-1" x="568.74" y="279.28" width="0.47" height="160.46"/><rect class="cls-1" x="569.22" y="279.28" width="0.48" height="160.46"/><rect class="cls-1" x="569.69" y="279.28" width="0.47" height="160.46"/><rect class="cls-1" x="570.17" y="279.28" width="0.47" height="160.46"/><rect class="cls-1" x="570.64" y="279.28" width="0.48" height="160.46"/><rect class="cls-1" x="571.12" y="279.28" width="0.47" height="160.46"/><rect class="cls-1" x="571.59" y="279.28" width="0.48" height="160.46"/><rect class="cls-1" x="572.07" y="279.28" width="0.47" height="160.46"/><rect class="cls-1" x="572.54" y="279.28" width="0.47" height="160.46"/><rect class="cls-1" x="573.02" y="279.28" width="0.48" height="160.46"/><rect class="cls-1" x="573.49" y="279.28" width="0.47" height="160.46"/><rect class="cls-1" x="573.97" y="279.28" width="0.48" height="160.46"/><rect class="cls-1" x="574.44" y="279.28" width="0.47" height="160.46"/><rect class="cls-1" x="574.92" y="279.28" width="0.47" height="160.46"/><rect class="cls-1" x="575.39" y="279.28" width="0.48" height="160.46"/><rect class="cls-1" x="575.87" y="279.28" width="0.47" height="160.46"/><rect class="cls-1" x="576.34" y="279.28" width="0.48" height="160.46"/><rect class="cls-1" x="576.82" y="279.28" width="0.47" height="160.46"/><rect class="cls-1" x="577.29" y="279.28" width="0.47" height="160.46"/><rect class="cls-1" x="577.77" y="279.28" width="0.48" height="160.46"/><rect class="cls-1" x="578.24" y="279.28" width="0.47" height="160.46"/><rect class="cls-1" x="578.72" y="279.28" width="0.47" height="160.46"/><rect class="cls-1" x="579.19" y="279.28" width="0.48" height="160.46"/><rect class="cls-1" x="579.67" y="279.28" width="0.47" height="160.46"/><rect class="cls-1" x="580.14" y="279.28" width="0.48" height="160.46"/><rect class="cls-1" x="580.62" y="279.28" width="0.47" height="160.46"/><rect class="cls-1" x="581.09" y="279.28" width="0.47" height="160.46"/><rect class="cls-1" x="581.57" y="279.28" width="0.48" height="160.46"/><rect class="cls-1" x="582.04" y="279.28" width="0.47" height="160.46"/><rect class="cls-1" x="582.52" y="279.28" width="0.29" height="160.46"/><rect class="cls-1" x="582.8" y="279.28" width="0.29" height="160.46"/><rect class="cls-1" x="583.09" y="279.28" width="0.29" height="160.46"/><rect class="cls-1" x="583.37" y="279.28" width="0.28" height="160.46"/><rect class="cls-1" x="583.66" y="279.28" width="0.29" height="160.46"/><rect class="cls-1" x="583.94" y="279.28" width="0.29" height="160.46"/><rect class="cls-1" x="584.23" y="279.28" width="0.29" height="160.46"/><rect class="cls-1" x="584.51" y="279.28" width="0.29" height="160.46"/><rect class="cls-1" x="584.8" y="279.28" width="0.29" height="160.46"/><rect class="cls-1" x="585.08" y="279.28" width="0.28" height="160.46"/><rect class="cls-1" x="585.37" y="279.28" width="0.29" height="160.46"/><rect class="cls-1" x="585.65" y="279.28" width="0.29" height="160.46"/><rect class="cls-1" x="585.94" y="279.28" width="0.29" height="160.46"/><rect class="cls-1" x="586.22" y="279.28" width="0.29" height="160.46"/><rect class="cls-1" x="586.51" y="279.28" width="0.29" height="160.46"/><rect class="cls-1" x="586.79" y="279.28" width="0.28" height="160.46"/><rect class="cls-1" x="587.08" y="279.28" width="0.29" height="160.46"/><rect class="cls-1" x="587.36" y="279.28" width="0.29" height="160.46"/><rect class="cls-1" x="587.65" y="279.28" width="0.29" height="160.46"/><rect class="cls-1" x="587.93" y="279.28" width="0.29" height="160.46"/><rect class="cls-1" x="588.22" y="279.28" width="0.29" height="160.46"/><rect class="cls-1" x="588.5" y="279.28" width="0.28" height="160.46"/><rect class="cls-1" x="588.79" y="279.28" width="0.29" height="160.46"/><rect class="cls-1" x="589.07" y="279.28" width="0.29" height="160.46"/><rect class="cls-1" x="589.36" y="279.28" width="0.29" height="160.46"/><rect class="cls-1" x="589.64" y="279.28" width="0.29" height="160.46"/><rect class="cls-1" x="589.93" y="279.28" width="0.29" height="160.46"/><rect class="cls-1" x="590.21" y="279.28" width="0.28" height="160.46"/><rect class="cls-1" x="590.5" y="279.28" width="0.29" height="160.46"/><rect class="cls-1" x="590.78" y="279.28" width="0.29" height="160.46"/><rect class="cls-1" x="591.07" y="279.28" width="0.29" height="160.46"/><rect class="cls-1" x="591.35" y="279.28" width="0.29" height="160.46"/><rect class="cls-1" x="591.64" y="279.28" width="0.29" height="160.46"/><rect class="cls-1" x="591.92" y="279.28" width="0.28" height="160.46"/><rect class="cls-1" x="592.21" y="279.28" width="0.29" height="160.46"/><rect class="cls-1" x="592.49" y="279.28" width="0.29" height="160.46"/><rect class="cls-1" x="592.78" y="279.28" width="0.47" height="160.46"/><rect class="cls-1" x="593.25" y="279.28" width="0.48" height="160.46"/><rect class="cls-1" x="593.73" y="279.28" width="0.47" height="160.46"/><rect class="cls-1" x="594.2" y="279.28" width="0.48" height="160.46"/><rect class="cls-1" x="594.68" y="279.28" width="0.47" height="160.46"/><rect class="cls-1" x="595.15" y="279.28" width="0.47" height="160.46"/><rect class="cls-1" x="595.63" y="279.28" width="0.48" height="160.46"/><rect class="cls-1" x="596.1" y="279.28" width="0.47" height="160.46"/><rect class="cls-1" x="596.58" y="279.28" width="0.48" height="160.46"/><rect class="cls-1" x="597.05" y="279.28" width="0.47" height="160.46"/><rect class="cls-1" x="597.53" y="279.28" width="0.47" height="160.46"/><rect class="cls-1" x="598" y="279.28" width="0.48" height="160.46"/><rect class="cls-1" x="598.48" y="279.28" width="0.47" height="160.46"/><rect class="cls-1" x="598.95" y="279.28" width="0.48" height="160.46"/><rect class="cls-1" x="599.43" y="279.28" width="0.47" height="160.46"/><rect class="cls-1" x="599.9" y="279.28" width="0.47" height="160.46"/><rect class="cls-1" x="600.38" y="279.28" width="0.48" height="160.46"/><rect class="cls-1" x="600.85" y="279.28" width="0.47" height="160.46"/><rect class="cls-1" x="601.33" y="279.28" width="0.48" height="160.46"/><rect class="cls-1" x="601.8" y="279.28" width="0.47" height="160.46"/><rect class="cls-1" x="602.28" y="279.28" width="0.47" height="160.46"/><rect class="cls-1" x="602.75" y="279.28" width="0.48" height="160.46"/><rect class="cls-1" x="603.23" y="279.28" width="0.47" height="160.46"/><rect class="cls-1" x="603.7" y="279.28" width="0.48" height="160.46"/><rect class="cls-1" x="604.18" y="279.28" width="0.47" height="160.46"/><rect class="cls-1" x="604.65" y="279.28" width="0.47" height="160.46"/><rect class="cls-1" x="605.13" y="279.28" width="0.48" height="160.46"/><rect class="cls-1" x="605.6" y="279.28" width="0.47" height="160.46"/><rect class="cls-1" x="606.08" y="279.28" width="0.47" height="160.46"/><rect class="cls-1" x="606.55" y="279.28" width="0.48" height="160.46"/><rect class="cls-1" x="607.03" y="279.28" width="0.47" height="160.46"/><rect class="cls-1" x="607.5" y="279.28" width="0.48" height="160.46"/><rect class="cls-1" x="607.98" y="279.28" width="0.47" height="160.46"/><rect class="cls-1" x="608.45" y="279.28" width="0.47" height="160.46"/><rect class="cls-1" x="608.93" y="279.28" width="0.48" height="160.46"/><rect class="cls-1" x="609.4" y="279.28" width="0.47" height="160.46"/><path class="cls-1" d="M887.23,849.77v0Z" transform="translate(-277.35 -410.03)"/></g><path class="cls-3" d="M1003.11,682.29c-16.65-51.6-13.65-86.09-1.4-109.09a78.88,78.88,0,0,1,19.16,1.33c-11.22,24.6-10.47,62.19,9.12,119.62,59.1,173.24-86.29,186.33-86.29,186.33S1058,852.48,1003.11,682.29Z" transform="translate(-277.35 -410.03)"/><path class="cls-3" d="M853.26,410q2.36,4.29,4.7,8.6c6.32,11.57,12.68,23.11,19.85,34.19a310.58,310.58,0,0,0,36.09,46.26c17.3,18.09,36.74,33.35,59.17,44.61a175.52,175.52,0,0,0,52.59,16.86,172,172,0,0,0,22.44,2,158.58,158.58,0,0,0,48.2-6.06l2.58-.77c0,.09.07.18.11.28-2.21,1.09-4.39,2.23-6.63,3.26a188.59,188.59,0,0,1-54.58,15.72,166.29,166.29,0,0,1-28.12,1.34,153.92,153.92,0,0,1-77-23.85C914.5,541,899.08,526.63,885.5,510.17a297.93,297.93,0,0,1-31.73-47.75L853,461c-.91,1.65-1.7,3.1-2.51,4.55-10.25,18.48-22,35.92-36.1,51.71-15.12,16.93-32.34,31.24-52.57,41.75a152.83,152.83,0,0,1-45.36,15.19,158.33,158.33,0,0,1-32.61,2,182.68,182.68,0,0,1-60.08-12.77c-5.63-2.22-11.06-5-16.57-7.49a1.34,1.34,0,0,1-.58-.46c2.21.63,4.42,1.31,6.65,1.9A157.45,157.45,0,0,0,650,562.5,173.52,173.52,0,0,0,730.23,545a201.86,201.86,0,0,0,44.48-29.4c19-16.33,34.94-35.32,49-56A443,443,0,0,0,847,420.39c1.88-3.48,3.83-6.91,5.74-10.36Z" transform="translate(-277.35 -410.03)"/><path class="cls-3" d="M277.35,872.12c.17-2.46.31-4.92.5-7.39,1.24-15.55,4.35-30.62,11.67-44.58,4.44-8.47,10.1-16,17.73-21.87a39.23,39.23,0,0,1,22.82-8.52,57.43,57.43,0,0,1,7.85.47,1.43,1.43,0,0,0,1.72-1c3.59-7.61,7.08-15.28,10.88-22.79,9.18-18.11,19.4-35.6,31.74-51.78,8.34-10.92,17.55-21,28.51-29.38,8.31-6.33,17.34-11.22,27.73-13.22,1.87-.36,3.76-.57,5.65-.85h7.44c2.86.49,5.77.78,8.57,1.49,9.89,2.48,16.89,8.49,21.1,17.76a61.3,61.3,0,0,1,5,21,126.38,126.38,0,0,1-6.35,51.19,113,113,0,0,1-20.61,35.93,91.09,91.09,0,0,1-19.89,18.21,53.63,53.63,0,0,1-25.59,9,55.48,55.48,0,0,1-17.7-1.56c-8.35-2.11-16.59-4.62-24.9-6.87-9.61-2.62-19.25-5.16-28.88-7.7-.88-.24-1.83-.21-2.71-.45s-1.35.1-1.69.94c-6.16,15.21-14.45,29.23-23.95,42.57-.17.24-.33.5-.54.82,2-.77,3.81-1.64,5.74-2.21a36.9,36.9,0,0,1,16.59-.67c8.83,1.43,17.07,4.65,25.11,8.43,15.18,7.15,29.25,16.19,43,25.67,10.82,7.44,21.5,15.09,32.23,22.66q11.78,8.33,23.52,16.71a3.24,3.24,0,0,0,2.79.47c3.21-.66,5.45-2.77,7.47-5.11,1.8-2.08,3.44-4.31,5.24-6.58.89,1.24,1.82,2.47,2.65,3.76.14.22,0,.76-.23,1.06q-7.95,12.81-15.94,25.61l-4.31,6.92c-2.13-1.44-4.24-2.8-6.27-4.25Q422,925.17,393,904.33c-11.73-8.39-23.59-16.57-36-23.93-8.53-5-17.23-9.75-26.65-12.95a40.78,40.78,0,0,0-12-2.41,16.89,16.89,0,0,0-9.62,2.87c-4.38,2.78-7.61,6.69-10.42,10.93s-5.44,8.73-8.14,13.11c-.2.34-.39.68-.66,1.13-1.05-1.53-2.08-2.94-3-4.43a1.72,1.72,0,0,1,.21-1.38q5.7-9.84,11.46-19.65,17.1-29.18,34.21-58.35c.15-.27.29-.55.51-1-3.68-.42-7.24-.9-10.88-.42-10,1.33-17.68,6.59-23.65,14.45-7.14,9.4-11.52,20.09-14,31.57a110.75,110.75,0,0,0-2.39,20.3A93.69,93.69,0,0,0,285,903c2.83,10,7.66,18.93,15.22,26.19a39.62,39.62,0,0,0,25.06,11.16c10.59.84,19.46-3,27.32-9.65,1.75-1.5,3.28-3.27,4.91-4.91l.31.19c-1.12,2.07-2.12,4.21-3.38,6.18-6.09,9.53-14.8,15.3-26,16.83-12.13,1.67-23.41-.63-32.85-9a43.85,43.85,0,0,1-10.91-15.86,88.15,88.15,0,0,1-6.42-26c-.38-3.69-.56-7.39-.84-11.09a5.44,5.44,0,0,0-.15-.7Zm67-81.17,1.49.2c2.65.32,5.32.5,7.95,1a296.36,296.36,0,0,1,32,8c9,2.65,18,5.41,27.42,6.61a44.37,44.37,0,0,0,27.83-5.35,67.43,67.43,0,0,0,16.47-13.19A76.08,76.08,0,0,0,472,766.49a74.62,74.62,0,0,0,5.75-34.26A79.06,79.06,0,0,0,472,705.59a48.63,48.63,0,0,0-9.79-15.5c-7-7.18-15.6-9.93-25.48-9-8.65.84-16.33,4.2-23.47,9-8.68,5.8-15.85,13.22-22.43,21.24a258.19,258.19,0,0,0-23.13,34c-7,12.08-13.36,24.53-19.4,37.13C347,785.23,345.71,788,344.34,791Z" transform="translate(-277.35 -410.03)"/><path class="cls-3" d="M1070.41,808.48c-.7,2-1.34,4.07-2.12,6.06a170.55,170.55,0,0,1-30.88,51,146.63,146.63,0,0,1-47.17,36,150.54,150.54,0,0,1-42.89,13.06,188.13,188.13,0,0,1-23.35,2,219.89,219.89,0,0,1-40.76-2.94,292.4,292.4,0,0,1-46.65-11.51c-15.85-5.29-31.8-10.26-48.1-14.07A357.15,357.15,0,0,0,749.66,881c-7.43-.89-14.9-1.7-22.37-2.12-7.89-.45-15.81-.62-23.71-.5a240.45,240.45,0,0,0-43.39,4.53,211.44,211.44,0,0,0-48.29,15.51,182.45,182.45,0,0,0-39.54,24.82c-5.19,4.3-9.62,9.32-14.19,14.22-4.36,4.67-8.69,9.36-13,14a20.54,20.54,0,0,1-1.87,1.86c2.86-21.79,5.51-43.58,10.6-65l-3.42,4.92A388.67,388.67,0,0,1,522.9,929c-5.59,6.36-11.4,12.52-18.33,17.5a23.22,23.22,0,0,1-8.52,4.21c-3.48.76-5.9-.37-7.52-3.55a32.43,32.43,0,0,1-3.41-13.36c-.66-14.71,1.72-29,5.9-43.08,5.46-18.39,14-35.36,24.21-51.51a257.74,257.74,0,0,1,20.63-28.49c8.59-10.17,18-19.46,29.17-26.83,9.23-6.09,19.14-10.54,30.17-12.16a64.41,64.41,0,0,1,18.6-.38c.47.07.92.21,1.52.35-1.31,6-2.61,11.94-3.92,18-2.11-.37-4.11-.74-6.11-1-13.41-2.11-26.22,0-38.52,5.54a80,80,0,0,0-22.68,15.79c-10.56,10.2-18.72,22.17-25.65,35a149.72,149.72,0,0,0-14.87,40.26,137.05,137.05,0,0,0-2.81,21c-.29,5.66-.57,11.32.26,17a14.43,14.43,0,0,0,2.32,6.59,4.88,4.88,0,0,0,4.93,2c3.7-.5,6.62-2.48,9.27-4.9,6.16-5.62,10.57-12.56,14.65-19.71A295.82,295.82,0,0,0,551.3,866a345.54,345.54,0,0,0,17.14-61.7c.43-2.34.81-4.7,1.5-7.13.77,2.14,1.62,4.25,2.29,6.42a63.26,63.26,0,0,1,2.43,23.21,80.79,80.79,0,0,1-3.38,16.75c-2,6.77-3.86,13.56-5.79,20.35-.08.29-.14.6-.22,1H576c-.23,1.14-.42,2.18-.67,3.2-2.61,10.62-5.27,21.22-7.83,31.84a129.9,129.9,0,0,0-3.74,21.43,25.15,25.15,0,0,0,.08,4.07,8.94,8.94,0,0,0,.75,2.1c1.9-2.1,3.57-4,5.33-5.86a174.27,174.27,0,0,1,35.75-28.54,209.15,209.15,0,0,1,41.06-19,234.61,234.61,0,0,1,44.39-10.61c8.69-1.18,17.42-2.17,26.17-2.68,9.72-.57,19.48-.76,29.22-.63A366,366,0,0,1,784.74,863c16.1,1.91,32,4.91,47.89,8,11,2.15,22,3.85,33.06,5.42,7.73,1.1,15.52,1.77,23.31,2.41,5.52.45,11.07.57,16.61.75,3.76.13,7.52.19,11.27.15a273.2,273.2,0,0,0,45.58-4.15,200,200,0,0,0,45-13.51A148.54,148.54,0,0,0,1047,837a106.79,106.79,0,0,0,22.33-27c.16-.28.3-.56.45-.84s.27-.48.4-.73Z" transform="translate(-277.35 -410.03)"/><path class="cls-3" d="M977.22,619.55a39.47,39.47,0,1,1-39.47-39.47A39.47,39.47,0,0,1,977.22,619.55Z" transform="translate(-277.35 -410.03)"/><path class="cls-3" d="M954.71,611a7.14,7.14,0,1,1-7.14-7.14A7.14,7.14,0,0,1,954.71,611Z" transform="translate(-277.35 -410.03)"/><path class="cls-3" d="M934.74,611a7.14,7.14,0,1,1-7.14-7.14A7.14,7.14,0,0,1,934.74,611Z" transform="translate(-277.35 -410.03)"/><path class="cls-3" d="M954.71,629.83a7.14,7.14,0,1,1-7.14-7.14A7.14,7.14,0,0,1,954.71,629.83Z" transform="translate(-277.35 -410.03)"/><path class="cls-3" d="M934.74,629.83a7.14,7.14,0,1,1-7.14-7.14A7.14,7.14,0,0,1,934.74,629.83Z" transform="translate(-277.35 -410.03)"/><path class="cls-3" d="M728.09,619.55a39.47,39.47,0,1,0,39.47-39.47A39.47,39.47,0,0,0,728.09,619.55Z" transform="translate(-277.35 -410.03)"/><path class="cls-3" d="M783,611a7.14,7.14,0,1,1-7.13-7.14A7.14,7.14,0,0,1,783,611Z" transform="translate(-277.35 -410.03)"/><path class="cls-3" d="M763.05,611a7.15,7.15,0,1,1-7.14-7.14A7.14,7.14,0,0,1,763.05,611Z" transform="translate(-277.35 -410.03)"/><path class="cls-3" d="M783,629.83a7.14,7.14,0,1,1-7.13-7.14A7.14,7.14,0,0,1,783,629.83Z" transform="translate(-277.35 -410.03)"/><path class="cls-3" d="M763.05,629.83a7.15,7.15,0,1,1-7.14-7.14A7.14,7.14,0,0,1,763.05,629.83Z" transform="translate(-277.35 -410.03)"/><path class="cls-1" d="M415.28,1033.79q-.22,0-10.11,22.31-7,15.54-18.68,43-10.38,24.35-10.38,26.59c0,2.24,1.89,3.35,5.66,3.35a22.4,22.4,0,0,0,4.28-.66q2.91-.43,5.83-1.15v3l-32,12.36q0-10.4,4.5-24.78,2.47-8.07,9.23-24.28-8.52,14-29.23,30.82-22.74,18.68-34.66,18.68a7,7,0,0,1-5.6-2.7,9.1,9.1,0,0,1-2.47-6.75q0-8.58,9.23-28.57,1.09-2.68,17.52-35.32,9.45-18.9,9.45-23c0-3-2-4.51-6.1-4.51l-3.79.44-1.37-2,30.15-10.76q0,10.32-9.88,30.15-9.88,20-19.34,38.45-10.6,20.49-10.6,26.32,0,6.75,6.1,6.75,13,0,36.86-28.12a231.44,231.44,0,0,0,39.6-65.7Z" transform="translate(-277.35 -410.03)"/><path class="cls-1" d="M488.23,1063.51q0,29.28-23.18,55.59-20.71,23.42-36,23.41a16.13,16.13,0,0,1-7.86-2.26q-4.06-2-4.06-4.5a7,7,0,0,1,1.59-3.63,23.7,23.7,0,0,1,1.6-2l4,1.31a26.62,26.62,0,0,0,7.41,1.6q16.2,0,29.72-18.9t13.51-40.54q0-11.2-5.38-17.3-6.54-7.42-20.93-7.42l-67.51,166.28-16.86,4.28,52.18-133q7.86,0,14.17-11.26,4.29-7.41,11-26.75-14,0-16.2.44-8.35,1.59-12.85,17.09l-4.51-.22,10.82-29.5,28.79-2.69,7.69-22,5.38-.66L454,1033.58q17.08,0,26.1,9Q488.23,1050.72,488.23,1063.51Z" transform="translate(-277.35 -410.03)"/><path class="cls-1" d="M578.86,1035l-18.23,30.87-3.14-3.14c.3-.77.59-1.66.88-2.69a15.32,15.32,0,0,0,.44-4.06q0-8.34-9.44-8.35-15.29,0-31.92,17.35-19.4,20-19.39,46.28,0,12.18,2.47,16.91,2.48,4.94,8.35,4.94,12.14,0,28.35-13.51,17.07-14.38,20.26-30.14a4.7,4.7,0,0,1,2,1.38,6,6,0,0,1,1.1,3.57q0,12.41-21.83,30.36-22.09,18.22-40.07,18.23-9,0-13.74-5.39a18.54,18.54,0,0,1-4.95-13.29q0-28.35,32.15-59.38,32.22-30.83,58.1-30.82a43.85,43.85,0,0,1,4.73.22A31.31,31.31,0,0,1,578.86,1035Z" transform="translate(-277.35 -410.03)"/><path class="cls-1" d="M676,1047.09q0,17.31-10.11,35.1-7.41,13.08-24.31,32.19t-34.41,31q-20.28,13.72-31.48,13.73-20.26,0-33.78,7.2T528.44,1185q0,7.2,6.53,12.14,6.54,5.16,19.34,5.17a77.62,77.62,0,0,0,12.85-1.1,133.41,133.41,0,0,0,15.05-3.85q-.66,7-7.63,10.6a34.36,34.36,0,0,1-16.65,3.79,48.48,48.48,0,0,1-22.3-4.94q-12.14-6-12.14-17.08,0-15.55,11.7-27.69,15.55-16,44.33-16,28.35,0,54-28.13,25.43-27.9,25.43-56.47c0-3.88-.22-6.43-.66-7.63-.91-2.42-2.8-3.63-5.65-3.63q-12.36,0-34.61,24.12-25.87,27.9-44.55,68.61l-5.22-1.38a359.82,359.82,0,0,0,12.86-43,189,189,0,0,0,4.94-41.15q0-8.13-7-8.13a15.48,15.48,0,0,0-4.72,1.15,4.11,4.11,0,0,0-1.59.66l-.88-2.69,29.5-15.54a38.55,38.55,0,0,1,1.09,5.38,76.65,76.65,0,0,1,1.1,12.85q0,8.79-3.35,24.94-1.1,5.45-3.35,14.67,10.11-11.7,21.15-22.52a269.26,269.26,0,0,1,27.19-23.84q14.88-11,22.74-11Q676,1033.36,676,1047.09Z" transform="translate(-277.35 -410.03)"/><path class="cls-1" d="M763.38,1035l-18.24,30.87-3.13-3.14c.29-.77.59-1.66.88-2.69a15.75,15.75,0,0,0,.44-4.06q0-8.34-9.45-8.35-15.27,0-31.91,17.35-19.4,20-19.4,46.28,0,12.18,2.48,16.91,2.48,4.94,8.35,4.94,12.14,0,28.34-13.51,17.09-14.38,20.27-30.14a4.66,4.66,0,0,1,2,1.38,6,6,0,0,1,1.1,3.57q0,12.41-21.82,30.36-22.1,18.22-40.07,18.23-9,0-13.75-5.39a18.57,18.57,0,0,1-4.94-13.29q0-28.35,32.15-59.38,32.2-30.83,58.09-30.82a43.72,43.72,0,0,1,4.73.22A31.15,31.15,0,0,1,763.38,1035Z" transform="translate(-277.35 -410.03)"/><path class="cls-1" d="M819.41,979.36q0,13.51-13.95,47-13.08,29.28-26.1,58.28-14.16,32-14.17,40c0,3.29,1.27,4.94,3.79,4.94,1.5,0,4-.9,7.42-2.69q1.59-.87,5-2.69l2,3.84q-10.1,7.42-13.45,9.45-8.79,5.39-13.74,5.39A5.38,5.38,0,0,1,751,1140q-1.82-2.91-1.81-8.13,0-12.57,13-45,4.5-11.25,24.55-55.81,13.29-29.65,13.29-33.94,0-2.92-3.62-2.92l-7,.44-1.81-3.4Z" transform="translate(-277.35 -410.03)"/><path class="cls-1" d="M858.58,1032.7q0,15-11.05,36.47-2.91,5.38-20.43,34.17-11,18-11,24.77c0,1.94.82,2.92,2.47,2.92a44.74,44.74,0,0,0,7-1.16,8.93,8.93,0,0,0,2.69-.66l.88,2.69-29.23,10.61q0-12.65,9.89-32.41,9.22-16.42,18.9-33.73,9.45-17.36,9.45-25.22c0-2.41-.76-3.62-2.26-3.62a26.65,26.65,0,0,0-6,1.37c-3,1.06-4.81,1.67-5.44,1.81l-1.1-3.62Zm7.85-24.78a7.37,7.37,0,0,1-1.76,5c-1.35,1.47-3.39,2.2-6.09,2.2q-6.76,0-6.76-5.16,0-3.13,2.91-6.27a8.26,8.26,0,0,1,6.32-3,4.65,4.65,0,0,1,4.28,2.25A11.15,11.15,0,0,1,866.43,1007.92Z" transform="translate(-277.35 -410.03)"/><path class="cls-1" d="M958.28,1041.71q0,7-9.67,25.21t-18.89,35.32q-10.15,19.11-10.15,24.28c0,1.36.89,2,2.69,2,.91,0,3-.6,6.31-1.81a42.15,42.15,0,0,0,5.16-2l1.6,4.94a189.92,189.92,0,0,1-20.71,9q-7,2.47-15.48,4.72,0-13,11.92-38,13-26.74,26.08-53.78c0-1.5-.61-2.25-1.81-2.25q-5.18,0-19.33,11.7a221.57,221.57,0,0,0-30.8,31.75,203.1,203.1,0,0,0-28.12,45.65l-16.91,4.94q9.23-19.77,16.2-35.32,8.79-19.77,14.88-34.88,5.82-15,5.82-19.12a5.33,5.33,0,0,0-1.32-3.57c-.91-1.06-2.49-1.59-4.72-1.59a6.92,6.92,0,0,0-3.62,1.1,11.33,11.33,0,0,0-1.6,1.15l-2.69-4.06,34.21-12.58.22,2.91q0,8.36-3.62,20-3.79,11.7-7.2,22.25,19.83-21.81,38-34,16.14-10.82,26.3-10.82Q958.28,1035,958.28,1041.71Z" transform="translate(-277.35 -410.03)"/><path class="cls-1" d="M1071.87,1041.73a14,14,0,0,1-2.25,6.79l-19.33-.5q-42.52,0-69.77,26.58-22.47,22-22.46,44.75a12.74,12.74,0,0,0,2.25,7.64q2,3.38,5.16,3.38,13,0,31.7-22.29a144.05,144.05,0,0,0,27-48.36,32,32,0,0,1,2.91,13.94,33.82,33.82,0,0,1-2.91,13.49,77.35,77.35,0,0,1-8.78,14.16l14.17-3.79a226.94,226.94,0,0,1-18.24,52q-14.83,29.94-34.17,47Q954,1217,927,1217q-14.16,0-14.17-11.48l.94-6.1a39.25,39.25,0,0,0,24.27,8.13q19.85,0,34.89-17.13,12.36-13.74,22.3-39.12,4.23-10.82,14.39-43.67a228.4,228.4,0,0,1-26.81,22Q963.89,1142.94,954,1143a9.35,9.35,0,0,1-8.35-4.73,19.5,19.5,0,0,1-3.13-11q0-28.35,36.91-59.6,38.9-33.07,79.87-33.07a22.88,22.88,0,0,1,9.23,1.54A6,6,0,0,1,1071.87,1041.73Z" transform="translate(-277.35 -410.03)"/><path class="cls-3" d="M897.4,686.25a3.58,3.58,0,0,1-3.58,3.58H812.24a3.58,3.58,0,0,1-3.58-3.58h0a3.57,3.57,0,0,1,3.58-3.57h81.58a3.58,3.58,0,0,1,3.58,3.57Z" transform="translate(-277.35 -410.03)"/><g class="cls-5"><path class="cls-1" d="M808.66,682.68v0Z" transform="translate(-277.35 -410.03)"/><rect class="cls-1" x="531.31" y="272.65" width="0.49" height="7.15"/><rect class="cls-1" x="531.8" y="272.65" width="0.49" height="7.15"/><rect class="cls-1" x="532.3" y="272.65" width="0.49" height="7.15"/><rect class="cls-1" x="532.79" y="272.65" width="0.49" height="7.15"/><rect class="cls-1" x="533.28" y="272.65" width="0.49" height="7.15"/><rect class="cls-1" x="533.78" y="272.65" width="0.49" height="7.15"/><rect class="cls-1" x="534.27" y="272.65" width="0.49" height="7.15"/><rect class="cls-1" x="534.76" y="272.65" width="0.49" height="7.15"/><rect class="cls-1" x="535.25" y="272.65" width="0.49" height="7.15"/><rect class="cls-1" x="535.75" y="272.65" width="0.49" height="7.15"/><rect class="cls-1" x="536.24" y="272.65" width="0.49" height="7.15"/><rect class="cls-1" x="536.73" y="272.65" width="0.49" height="7.15"/><rect class="cls-1" x="537.23" y="272.65" width="0.49" height="7.15"/><rect class="cls-1" x="537.72" y="272.65" width="0.49" height="7.15"/><rect class="cls-1" x="538.21" y="272.65" width="0.49" height="7.15"/><rect class="cls-1" x="538.71" y="272.65" width="0.49" height="7.15"/><rect class="cls-1" x="539.2" y="272.65" width="0.49" height="7.15"/><rect class="cls-1" x="539.69" y="272.65" width="0.49" height="7.15"/><rect class="cls-1" x="540.18" y="272.65" width="0.49" height="7.15"/><rect class="cls-1" x="540.68" y="272.65" width="0.49" height="7.15"/><rect class="cls-1" x="541.17" y="272.65" width="0.49" height="7.15"/><rect class="cls-1" x="541.66" y="272.65" width="0.49" height="7.15"/><rect class="cls-1" x="542.16" y="272.65" width="0.49" height="7.15"/><rect class="cls-1" x="542.65" y="272.65" width="0.49" height="7.15"/><rect class="cls-1" x="543.14" y="272.65" width="0.49" height="7.15"/><rect class="cls-1" x="543.64" y="272.65" width="0.49" height="7.15"/><rect class="cls-1" x="544.13" y="272.65" width="0.49" height="7.15"/><rect class="cls-1" x="544.62" y="272.65" width="0.49" height="7.15"/><rect class="cls-1" x="545.11" y="272.65" width="0.49" height="7.15"/><rect class="cls-1" x="545.61" y="272.65" width="0.49" height="7.15"/><rect class="cls-1" x="546.1" y="272.65" width="0.49" height="7.15"/><rect class="cls-1" x="546.59" y="272.65" width="0.49" height="7.15"/><rect class="cls-1" x="547.09" y="272.65" width="0.49" height="7.15"/><rect class="cls-1" x="547.58" y="272.65" width="0.49" height="7.15"/><rect class="cls-1" x="548.07" y="272.65" width="0.49" height="7.15"/><rect class="cls-1" x="548.57" y="272.65" width="0.49" height="7.15"/><rect class="cls-1" x="549.06" y="272.65" width="0.37" height="7.15"/><rect class="cls-1" x="549.43" y="272.65" width="0.37" height="7.15"/><rect class="cls-1" x="549.8" y="272.65" width="0.37" height="7.15"/><rect class="cls-1" x="550.17" y="272.65" width="0.37" height="7.15"/><rect class="cls-1" x="550.54" y="272.65" width="0.37" height="7.15"/><rect class="cls-1" x="550.91" y="272.65" width="0.37" height="7.15"/><rect class="cls-1" x="551.28" y="272.65" width="0.37" height="7.15"/><rect class="cls-1" x="551.65" y="272.65" width="0.37" height="7.15"/><rect class="cls-1" x="552.02" y="272.65" width="0.37" height="7.15"/><rect class="cls-1" x="552.39" y="272.65" width="0.37" height="7.15"/><rect class="cls-1" x="552.76" y="272.65" width="0.37" height="7.15"/><rect class="cls-1" x="553.13" y="272.65" width="0.37" height="7.15"/><rect class="cls-1" x="553.5" y="272.65" width="0.37" height="7.15"/><rect class="cls-1" x="553.87" y="272.65" width="0.37" height="7.15"/><rect class="cls-1" x="554.23" y="272.65" width="0.37" height="7.15"/><rect class="cls-1" x="554.6" y="272.65" width="0.37" height="7.15"/><rect class="cls-1" x="554.97" y="272.65" width="0.37" height="7.15"/><rect class="cls-1" x="555.34" y="272.65" width="0.37" height="7.15"/><rect class="cls-1" x="555.71" y="272.65" width="0.37" height="7.15"/><rect class="cls-1" x="556.08" y="272.65" width="0.37" height="7.15"/><rect class="cls-1" x="556.45" y="272.65" width="0.37" height="7.15"/><rect class="cls-1" x="556.82" y="272.65" width="0.37" height="7.15"/><rect class="cls-1" x="557.19" y="272.65" width="0.37" height="7.15"/><rect class="cls-1" x="557.56" y="272.65" width="0.37" height="7.15"/><rect class="cls-1" x="557.93" y="272.65" width="0.37" height="7.15"/><rect class="cls-1" x="558.3" y="272.65" width="0.37" height="7.15"/><rect class="cls-1" x="558.67" y="272.65" width="0.37" height="7.15"/><rect class="cls-1" x="559.04" y="272.65" width="0.37" height="7.15"/><rect class="cls-1" x="559.41" y="272.65" width="0.37" height="7.15"/><rect class="cls-1" x="559.78" y="272.65" width="0.37" height="7.15"/><rect class="cls-1" x="560.15" y="272.65" width="0.37" height="7.15"/><rect class="cls-1" x="560.52" y="272.65" width="0.37" height="7.15"/><rect class="cls-1" x="560.89" y="272.65" width="0.37" height="7.15"/><rect class="cls-1" x="561.26" y="272.65" width="0.37" height="7.15"/><rect class="cls-1" x="561.63" y="272.65" width="0.37" height="7.15"/><rect class="cls-1" x="562" y="272.65" width="0.37" height="7.15"/><rect class="cls-1" x="562.37" y="272.65" width="0.62" height="7.15"/><rect class="cls-1" x="562.98" y="272.65" width="0.62" height="7.15"/><rect class="cls-1" x="563.6" y="272.65" width="0.62" height="7.15"/><rect class="cls-1" x="564.22" y="272.65" width="0.62" height="7.15"/><rect class="cls-1" x="564.83" y="272.65" width="0.62" height="7.15"/><rect class="cls-1" x="565.45" y="272.65" width="0.62" height="7.15"/><rect class="cls-1" x="566.07" y="272.65" width="0.62" height="7.15"/><rect class="cls-1" x="566.68" y="272.65" width="0.62" height="7.15"/><rect class="cls-1" x="567.3" y="272.65" width="0.62" height="7.15"/><rect class="cls-1" x="567.91" y="272.65" width="0.62" height="7.15"/><rect class="cls-1" x="568.53" y="272.65" width="0.62" height="7.15"/><rect class="cls-1" x="569.15" y="272.65" width="0.62" height="7.15"/><rect class="cls-1" x="569.76" y="272.65" width="0.62" height="7.15"/><rect class="cls-1" x="570.38" y="272.65" width="0.62" height="7.15"/><rect class="cls-1" x="571" y="272.65" width="0.62" height="7.15"/><rect class="cls-1" x="571.61" y="272.65" width="0.62" height="7.15"/><rect class="cls-1" x="572.23" y="272.65" width="0.62" height="7.15"/><rect class="cls-1" x="572.84" y="272.65" width="0.62" height="7.15"/><rect class="cls-1" x="573.46" y="272.65" width="0.62" height="7.15"/><rect class="cls-1" x="574.08" y="272.65" width="0.62" height="7.15"/><rect class="cls-1" x="574.69" y="272.65" width="0.62" height="7.15"/><rect class="cls-1" x="575.31" y="272.65" width="0.62" height="7.15"/><rect class="cls-1" x="575.92" y="272.65" width="0.62" height="7.15"/><rect class="cls-1" x="576.54" y="272.65" width="0.62" height="7.15"/><rect class="cls-1" x="577.16" y="272.65" width="0.62" height="7.15"/><rect class="cls-1" x="577.77" y="272.65" width="0.62" height="7.15"/><rect class="cls-1" x="578.39" y="272.65" width="0.62" height="7.15"/><rect class="cls-1" x="579.01" y="272.65" width="0.62" height="7.15"/><rect class="cls-1" x="579.62" y="272.65" width="0.62" height="7.15"/><rect class="cls-1" x="580.24" y="272.65" width="0.62" height="7.15"/><rect class="cls-1" x="580.85" y="272.65" width="0.62" height="7.15"/><rect class="cls-1" x="581.47" y="272.65" width="0.62" height="7.15"/><rect class="cls-1" x="582.09" y="272.65" width="0.62" height="7.15"/><rect class="cls-1" x="582.7" y="272.65" width="0.62" height="7.15"/><rect class="cls-1" x="583.32" y="272.65" width="0.62" height="7.15"/><rect class="cls-1" x="583.94" y="272.65" width="0.62" height="7.15"/><rect class="cls-1" x="584.55" y="272.65" width="0.37" height="7.15"/><rect class="cls-1" x="584.92" y="272.65" width="0.37" height="7.15"/><rect class="cls-1" x="585.29" y="272.65" width="0.37" height="7.15"/><rect class="cls-1" x="585.66" y="272.65" width="0.37" height="7.15"/><rect class="cls-1" x="586.03" y="272.65" width="0.37" height="7.15"/><rect class="cls-1" x="586.4" y="272.65" width="0.37" height="7.15"/><rect class="cls-1" x="586.77" y="272.65" width="0.37" height="7.15"/><rect class="cls-1" x="587.14" y="272.65" width="0.37" height="7.15"/><rect class="cls-1" x="587.51" y="272.65" width="0.37" height="7.15"/><rect class="cls-1" x="587.88" y="272.65" width="0.37" height="7.15"/><rect class="cls-1" x="588.25" y="272.65" width="0.37" height="7.15"/><rect class="cls-1" x="588.62" y="272.65" width="0.37" height="7.15"/><rect class="cls-1" x="588.99" y="272.65" width="0.37" height="7.15"/><rect class="cls-1" x="589.36" y="272.65" width="0.37" height="7.15"/><rect class="cls-1" x="589.73" y="272.65" width="0.37" height="7.15"/><rect class="cls-1" x="590.1" y="272.65" width="0.37" height="7.15"/><rect class="cls-1" x="590.47" y="272.65" width="0.37" height="7.15"/><rect class="cls-1" x="590.84" y="272.65" width="0.37" height="7.15"/><rect class="cls-1" x="591.21" y="272.65" width="0.37" height="7.15"/><rect class="cls-1" x="591.58" y="272.65" width="0.37" height="7.15"/><rect class="cls-1" x="591.95" y="272.65" width="0.37" height="7.15"/><rect class="cls-1" x="592.32" y="272.65" width="0.37" height="7.15"/><rect class="cls-1" x="592.69" y="272.65" width="0.37" height="7.15"/><rect class="cls-1" x="593.06" y="272.65" width="0.37" height="7.15"/><rect class="cls-1" x="593.42" y="272.65" width="0.37" height="7.15"/><rect class="cls-1" x="593.79" y="272.65" width="0.37" height="7.15"/><rect class="cls-1" x="594.16" y="272.65" width="0.37" height="7.15"/><rect class="cls-1" x="594.53" y="272.65" width="0.37" height="7.15"/><rect class="cls-1" x="594.9" y="272.65" width="0.37" height="7.15"/><rect class="cls-1" x="595.27" y="272.65" width="0.37" height="7.15"/><rect class="cls-1" x="595.64" y="272.65" width="0.37" height="7.15"/><rect class="cls-1" x="596.01" y="272.65" width="0.37" height="7.15"/><rect class="cls-1" x="596.38" y="272.65" width="0.37" height="7.15"/><rect class="cls-1" x="596.75" y="272.65" width="0.37" height="7.15"/><rect class="cls-1" x="597.12" y="272.65" width="0.37" height="7.15"/><rect class="cls-1" x="597.49" y="272.65" width="0.37" height="7.15"/><rect class="cls-1" x="597.86" y="272.65" width="0.62" height="7.15"/><rect class="cls-1" x="598.48" y="272.65" width="0.62" height="7.15"/><rect class="cls-1" x="599.09" y="272.65" width="0.62" height="7.15"/><rect class="cls-1" x="599.71" y="272.65" width="0.62" height="7.15"/><rect class="cls-1" x="600.33" y="272.65" width="0.62" height="7.15"/><rect class="cls-1" x="600.94" y="272.65" width="0.62" height="7.15"/><rect class="cls-1" x="601.56" y="272.65" width="0.62" height="7.15"/><rect class="cls-1" x="602.18" y="272.65" width="0.62" height="7.15"/><rect class="cls-1" x="602.79" y="272.65" width="0.62" height="7.15"/><rect class="cls-1" x="603.41" y="272.65" width="0.62" height="7.15"/><rect class="cls-1" x="604.02" y="272.65" width="0.62" height="7.15"/><rect class="cls-1" x="604.64" y="272.65" width="0.62" height="7.15"/><rect class="cls-1" x="605.26" y="272.65" width="0.62" height="7.15"/><rect class="cls-1" x="605.87" y="272.65" width="0.62" height="7.15"/><rect class="cls-1" x="606.49" y="272.65" width="0.62" height="7.15"/><rect class="cls-1" x="607.11" y="272.65" width="0.62" height="7.15"/><rect class="cls-1" x="607.72" y="272.65" width="0.62" height="7.15"/><rect class="cls-1" x="608.34" y="272.65" width="0.62" height="7.15"/><rect class="cls-1" x="608.95" y="272.65" width="0.62" height="7.15"/><rect class="cls-1" x="609.57" y="272.65" width="0.62" height="7.15"/><rect class="cls-1" x="610.19" y="272.65" width="0.62" height="7.15"/><rect class="cls-1" x="610.8" y="272.65" width="0.62" height="7.15"/><rect class="cls-1" x="611.42" y="272.65" width="0.62" height="7.15"/><rect class="cls-1" x="612.04" y="272.65" width="0.62" height="7.15"/><rect class="cls-1" x="612.65" y="272.65" width="0.62" height="7.15"/><rect class="cls-1" x="613.27" y="272.65" width="0.62" height="7.15"/><rect class="cls-1" x="613.88" y="272.65" width="0.62" height="7.15"/><rect class="cls-1" x="614.5" y="272.65" width="0.62" height="7.15"/><rect class="cls-1" x="615.12" y="272.65" width="0.62" height="7.15"/><rect class="cls-1" x="615.73" y="272.65" width="0.62" height="7.15"/><rect class="cls-1" x="616.35" y="272.65" width="0.62" height="7.15"/><rect class="cls-1" x="616.96" y="272.65" width="0.62" height="7.15"/><rect class="cls-1" x="617.58" y="272.65" width="0.62" height="7.15"/><rect class="cls-1" x="618.2" y="272.65" width="0.62" height="7.15"/><rect class="cls-1" x="618.81" y="272.65" width="0.62" height="7.15"/><rect class="cls-1" x="619.43" y="272.65" width="0.62" height="7.15"/><path class="cls-1" d="M897.4,689.83v0Z" transform="translate(-277.35 -410.03)"/></g></svg>